<svg width="500" height="180" viewBox="0 0 500 180" fill="none" xmlns="http://www.w3.org/2000/svg">
  <!-- HEXÁGONO 1 (Azul, aparece y luego pulsa) -->
  <polygon id="h1" points="90,90 120,110 120,150 90,170 60,150 60,110" fill="#1C7ED6" stroke="#1C7ED6" stroke-width="4">
    <animate attributeName="opacity" from="0" to="1" dur="0.5s" begin="0s" fill="freeze"/>
    <animateTransform attributeName="transform" type="scale" values="1;1.08;1" keyTimes="0;0.5;1" dur="1s" begin="1.2s" repeatCount="indefinite"/>
  </polygon>

  <!-- HEXÁGONO 2 (Aparece, línea, activa con glow) -->
  <polygon id="h2" points="210,90 240,110 240,150 210,170 180,150 180,110" fill="#fff" stroke="#1C7ED6" stroke-width="4" opacity="0">
    <animate attributeName="opacity" from="0" to="1" dur="0.4s" begin="0.7s" fill="freeze"/>
  </polygon>
  <polygon points="210,90 240,110 240,150 210,170 180,150 180,110" fill="#69DB7C" stroke="#1C7ED6" stroke-width="4" opacity="0">
    <animate attributeName="opacity" from="0" to="1;1;0.6;0.6" keyTimes="0;0.3;0.7;1" dur="1.2s" begin="1.2s" fill="freeze"/>
    <animate attributeName="opacity" from="0.6" to="0.6;1;0.6" keyTimes="0;0.5;1" dur="1.2s" begin="2.6s" repeatCount="indefinite"/>
  </polygon>
  <!-- GLOW en h2 -->
  <ellipse cx="210" cy="130" rx="38" ry="24" fill="#69DB7C" opacity="0">
    <animate attributeName="opacity" from="0" to="0.2;0.5;0.2;0" keyTimes="0;0.25;0.5;1" dur="1.2s" begin="1.2s" fill="freeze"/>
    <animate attributeName="opacity" from="0.2" to="0.5;0.2;0.5" keyTimes="0;0.5;1" dur="1.2s" begin="2.6s" repeatCount="indefinite"/>
  </ellipse>

  <!-- HEXÁGONO 3 (Aparece, línea, activa con glow) -->
  <polygon id="h3" points="330,90 360,110 360,150 330,170 300,150 300,110" fill="#fff" stroke="#1C7ED6" stroke-width="4" opacity="0">
    <animate attributeName="opacity" from="0" to="1" dur="0.4s" begin="1.7s" fill="freeze"/>
  </polygon>
  <polygon points="330,90 360,110 360,150 330,170 300,150 300,110" fill="#69DB7C" stroke="#1C7ED6" stroke-width="4" opacity="0">
    <animate attributeName="opacity" from="0" to="1;1;0.6;0.6" keyTimes="0;0.3;0.7;1" dur="1.2s" begin="2.2s" fill="freeze"/>
    <animate attributeName="opacity" from="0.6" to="0.6;1;0.6" keyTimes="0;0.5;1" dur="1.2s" begin="3.6s" repeatCount="indefinite"/>
  </polygon>
  <!-- GLOW en h3 -->
  <ellipse cx="330" cy="130" rx="38" ry="24" fill="#69DB7C" opacity="0">
    <animate attributeName="opacity" from="0" to="0.2;0.5;0.2;0" keyTimes="0;0.25;0.5;1" dur="1.2s" begin="2.2s" fill="freeze"/>
    <animate attributeName="opacity" from="0.2" to="0.5;0.2;0.5" keyTimes="0;0.5;1" dur="1.2s" begin="3.6s" repeatCount="indefinite"/>
  </ellipse>

  <!-- CONEXIONES (animadas) -->
  <rect x="120" y="128" width="60" height="4" fill="#1C7ED6" rx="2" opacity="0">
    <animate attributeName="opacity" from="0" to="1" dur="0.3s" begin="1.1s" fill="freeze"/>
  </rect>
  <rect x="240" y="128" width="60" height="4" fill="#1C7ED6" rx="2" opacity="0">
    <animate attributeName="opacity" from="0" to="1" dur="0.3s" begin="2.1s" fill="freeze"/>
  </rect>

  <!-- LOOP: todo desaparece al final y vuelve a empezar -->
  <rect x="0" y="0" width="500" height="180" fill="#F1F3F5" opacity="0">
    <animate attributeName="opacity" from="0" to="0;0;1;0" keyTimes="0;0.92;0.96;1" dur="4.5s" repeatCount="indefinite"/>
  </rect>
</svg>
